<?xml version="1.0" encoding="iso-8859-1"?>
<!-- Generator: Adobe Illustrator 19.0.0, SVG Export Plug-In . SVG Version: 6.00 Build 0)  -->
<svg version="1.1" id="Capa_1" xmlns="http://www.w3.org/2000/svg" xmlns:xlink="http://www.w3.org/1999/xlink" x="0px" y="0px"
	 viewBox="0 0 512 512" style="enable-background:new 0 0 512 512;" xml:space="preserve">
<path style="fill:#FFFFFF;" d="M136.176,394.416l-4.864-3.6C77.928,351.344,46.064,288.2,46.064,221.936
	C46.064,106.176,140.24,12,256,12s209.936,94.176,209.936,209.936S371.76,431.864,256,431.864c-13.104,0-26.376-1.256-39.456-3.752
	l-5.424-1.032l-74.944,59.944L136.176,394.416L136.176,394.416z"/>
<path d="M256,24c109.144,0,197.936,88.792,197.936,197.936S365.144,419.872,256,419.872c-12.32,0-24.84-1.192-37.216-3.544
	l-10.848-2.064l-8.624,6.904l-51.128,40.904V400.48v-12.112l-9.728-7.192c-50.336-37.232-80.392-96.76-80.392-159.24
	C58.064,112.792,146.856,24,256,24 M256,0C133.432,0,34.064,99.36,34.064,221.936c0,73.208,35.456,138.112,90.12,178.536V512
	l90.12-72.096c13.512,2.568,27.44,3.968,41.696,3.968c122.568,0,221.936-99.36,221.936-221.936S378.568,0,256,0L256,0z"/>
<path style="fill:#006EDB;" d="M223.48,347.264h51.792V221.92h34.544l4.584-43.184h-39.128l0.048-21.632
	c0-11.264,1.08-17.296,17.232-17.296h21.6v-43.2h-34.56c-41.504,0-56.112,20.952-56.112,56.192v25.936H197.6v43.2h25.872
	L223.48,347.264z"/>
<g>
</g>
<g>
</g>
<g>
</g>
<g>
</g>
<g>
</g>
<g>
</g>
<g>
</g>
<g>
</g>
<g>
</g>
<g>
</g>
<g>
</g>
<g>
</g>
<g>
</g>
<g>
</g>
<g>
</g>
</svg>
